<svg xmlns="http://www.w3.org/2000/svg" xmlns:xlink="http://www.w3.org/1999/xlink" width="43" height="41"><defs><path id="a" d="M67.62 53.95l-3.76 3.8.04 8.75-.05.25v-.03a2.34 2.34 0 0 0-.08.26l-.04.14-.03.06-.08.16-.03.05-.13.16-.06.05c-.05.05-.1.1-.15.13l-.09.05-.18.1c-.16.06-.32.1-.5.1l-3.14.01c-.36 0-.7-.13-.94-.38a1.29 1.29 0 0 1 .95-2.21h1.8v-8.1c0-.11.01-.26.03-.35l.02-.07c.01-.07.02-.13.06-.21.07-.18.2-.35.35-.5l3.23-3.22-2.9-2.9-.16-.13c-.32-.2-.54-.54-.6-.95-.02-.1-.03-.2-.02-.33v-7.98h-1.8c-.75 0-1.35-.6-1.35-1.33 0-.36.14-.69.4-.94.25-.25.58-.39.94-.39h3.2c.16 0 .31.04.44.1l.1.05.05.03.1.05.16.14.07.05.11.15.04.06a1.64 1.64 0 0 1 .17.38c0 .05.03.1.04.14l.02.08c0 .1.03.18.05.24l-.04 8.7 3.75 3.78c.27.26.4.61.4 1.03 0 .37-.13.72-.39.97zM54 34.22l-.63 6.98.01.08v.2c0 .07-.01.14-.04.23l-.02.08-2.25 25.99c-.01.25-.1.5-.26.72l-.03.03c-.06.07-.1.13-.16.17l-4.65 4a1.26 1.26 0 0 1-1.8-.16l-.04-.08-3.86-4.67a1.3 1.3 0 0 1-.27-1.03l2.93-33.52.02-.11.02-.08a.6.6 0 0 0 0-.05l.03-.08.06-.14.03-.06.1-.16.03-.03c.05-.07.1-.11.13-.14l.06-.05c.05-.04.1-.09.16-.12l.16-.07.07-.04.15-.04c.06 0 .12-.03.18-.05h.06l.07-.02 8.57.82h.1c.22 0 .45.15.6.28.34.27.51.7.47 1.12zm-3.3 8.33l-6-.54-2.06 23.77 6.01.53zm.66-7.26l-6.01-.53-.43 4.68 6.01.53zM25 52.98c-.01-.42.12-.77.39-1.03l3.75-3.79-.04-8.69.05-.24.02-.08.04-.14.05-.15.04-.08c.02-.06.05-.1.08-.15l.04-.06.11-.15.07-.05.16-.14.1-.05.05-.03.1-.05c.13-.06.28-.1.44-.1h3.2a1.33 1.33 0 1 1 0 2.66h-1.8v7.98c0 .12 0 .23-.03.33-.06.41-.28.75-.6.95l-.16.13-2.9 2.9 3.23 3.23c.16.14.28.3.35.49.04.08.05.14.06.21l.02.07c.02.1.03.24.02.36v8.09h1.81a1.3 1.3 0 1 1 0 2.6l-3.14-.03c-.17 0-.33-.03-.49-.1l-.18-.1c-.03 0-.06-.02-.09-.04l-.15-.13-.06-.05-.13-.16-.03-.05a2.3 2.3 0 0 1-.08-.16l-.03-.06-.04-.14a2.35 2.35 0 0 0-.08-.26v.03c0-.1-.03-.18-.05-.25l.04-8.76-3.76-3.79c-.26-.25-.4-.6-.38-.97z"/></defs><use fill="#8d81ac" xlink:href="#a" transform="translate(-25 -32)"/></svg>